<svg xmlns="http://www.w3.org/2000/svg" xmlns:xlink="http://www.w3.org/1999/xlink" width="1000" height="1000" viewBox="0 0 1000 1000"><defs><clipPath id="b"><rect width="1000" height="1000"/></clipPath></defs><g id="a" clip-path="url(#b)"><rect width="1000" height="1000" fill="#fff"/><circle cx="500" cy="500" r="500" fill="#4e4343"/><path d="M500,1a507,507,0,0,0-51.021,2.576,500.259,500.259,0,0,0-49.546,7.562c-16.076,3.29-32.165,7.427-47.821,12.3-15.48,4.815-30.9,10.46-45.845,16.78-14.8,6.261-29.478,13.331-43.619,21.013-14.041,7.628-27.883,16.037-41.143,24.995-13.2,8.915-26.12,18.579-38.415,28.726-12.265,10.122-24.187,20.958-35.436,32.207s-22.085,23.171-32.207,35.436c-10.147,12.295-19.812,25.22-28.726,38.415-8.958,13.259-17.367,27.1-24.995,41.143-7.682,14.141-14.752,28.817-21.013,43.619-6.319,14.94-11.965,30.365-16.78,45.845-4.869,15.656-9.006,31.745-12.3,47.821a500.259,500.259,0,0,0-7.562,49.546,506.487,506.487,0,0,0,0,102.042,500.259,500.259,0,0,0,7.562,49.546c3.29,16.076,7.427,32.165,12.3,47.821,4.815,15.48,10.46,30.9,16.78,45.845,6.261,14.8,13.331,29.478,21.013,43.619,7.628,14.041,16.037,27.883,24.995,41.143,8.915,13.2,18.579,26.12,28.726,38.415,10.122,12.265,20.958,24.188,32.207,35.436s23.171,22.085,35.436,32.207c12.295,10.147,25.22,19.812,38.415,28.726,13.259,8.958,27.1,17.367,41.143,24.995,14.141,7.682,28.817,14.752,43.619,21.013,14.94,6.319,30.365,11.965,45.845,16.78,15.656,4.869,31.745,9.006,47.821,12.3a500.259,500.259,0,0,0,49.546,7.562,506.487,506.487,0,0,0,102.042,0,500.259,500.259,0,0,0,49.546-7.562c16.076-3.29,32.165-7.427,47.821-12.3,15.48-4.815,30.9-10.46,45.845-16.78,14.8-6.261,29.478-13.331,43.619-21.013,14.041-7.628,27.883-16.037,41.143-24.995,13.2-8.915,26.12-18.579,38.415-28.726,12.265-10.122,24.188-20.958,35.436-32.207s22.085-23.171,32.207-35.436c10.147-12.295,19.812-25.22,28.726-38.415,8.958-13.259,17.367-27.1,24.995-41.143,7.682-14.141,14.752-28.817,21.013-43.619,6.319-14.94,11.965-30.365,16.78-45.845,4.869-15.656,9.006-31.745,12.3-47.821a500.259,500.259,0,0,0,7.562-49.546,506.487,506.487,0,0,0,0-102.042,500.259,500.259,0,0,0-7.562-49.546c-3.29-16.076-7.427-32.165-12.3-47.821-4.815-15.48-10.46-30.9-16.78-45.845-6.261-14.8-13.331-29.478-21.013-43.619-7.628-14.041-16.037-27.883-24.995-41.143-8.915-13.2-18.579-26.12-28.726-38.415-10.122-12.265-20.958-24.187-32.207-35.436s-23.171-22.085-35.436-32.207c-12.295-10.147-25.22-19.812-38.415-28.726-13.259-8.958-27.1-17.367-41.143-24.995-14.141-7.682-28.817-14.752-43.619-21.013-14.94-6.319-30.365-11.965-45.845-16.78-15.656-4.869-31.745-9.006-47.821-12.3a500.259,500.259,0,0,0-49.546-7.562A507,507,0,0,0,500,1m0-1c276.142,0,500,223.858,500,500s-223.858,500-500,500S0,776.142,0,500,223.858,0,500,0Z" fill="#707070"/><g transform="matrix(0.966, 0.259, -0.259, 0.966, 220.494, 163.978)"><line x2="368.806" y2="306.5" fill="none" stroke="#fff" stroke-linecap="round" stroke-width="50"/></g><g transform="matrix(-0.259, 0.966, -0.966, -0.259, 546, 221.515)"><line x2="368.806" y2="306.5" fill="none" stroke="#fff" stroke-linecap="round" stroke-width="50"/></g><path d="M197,50C115.944,50,50,123.121,50,213s65.944,163,147,163,147-73.121,147-163S278.056,50,197,50m0-50C305.8,0,394,95.363,394,213S305.8,426,197,426,0,330.637,0,213,88.2,0,197,0Z" transform="translate(251.395 100) rotate(21)" fill="#fcfcfc"/><text transform="translate(229.711 801.972) rotate(-3)" fill="#dcdcdc" font-size="250" font-family="ShowcardGothic-Reg, Showcard Gothic"><tspan x="0" y="0">GAME</tspan></text></g></svg>